<svg width="118" height="100" viewBox="0 0 118 100" fill="none" xmlns="http://www.w3.org/2000/svg">
    <path d="M110.474 0H7.05155C5.18136 0 3.38777 0.752548 2.06535 2.09209C0.742929 3.43164 0 5.24845 0 7.14286V92.8571C0 94.7515 0.742929 96.5684 2.06535 97.9079C3.38777 99.2474 5.18136 100 7.05155 100H110.474C112.344 100 114.138 99.2474 115.46 97.9079C116.783 96.5684 117.526 94.7515 117.526 92.8571V7.14286C117.526 5.24845 116.783 3.43164 115.46 2.09209C114.138 0.752548 112.344 0 110.474 0V0ZM4.70103 23.8095H56.4124V76.1905H4.70103V23.8095ZM61.1134 19.0476V4.7619H84.6186V19.0476H61.1134ZM56.4124 19.0476H32.9072V4.7619H56.4124V19.0476ZM56.4124 80.9524V95.2381H32.9072V80.9524H56.4124ZM61.1134 80.9524H84.6186V95.2381H61.1134V80.9524ZM61.1134 76.1905V23.8095H112.825V76.1905H61.1134ZM112.825 7.14286V19.0476H89.3196V4.7619H110.474C111.098 4.7619 111.695 5.01275 112.136 5.45927C112.577 5.90579 112.825 6.51139 112.825 7.14286ZM7.05155 4.7619H28.2062V19.0476H4.70103V7.14286C4.70103 6.51139 4.94867 5.90579 5.38948 5.45927C5.83029 5.01275 6.42815 4.7619 7.05155 4.7619V4.7619ZM4.70103 92.8571V80.9524H28.2062V95.2381H7.05155C6.42815 95.2381 5.83029 94.9872 5.38948 94.5407C4.94867 94.0942 4.70103 93.4886 4.70103 92.8571ZM110.474 95.2381H89.3196V80.9524H112.825V92.8571C112.825 93.4886 112.577 94.0942 112.136 94.5407C111.695 94.9872 111.098 95.2381 110.474 95.2381Z" fill="white"/>
    </svg>
    