<svg width="108" height="110" viewBox="0 0 108 110" fill="none" xmlns="http://www.w3.org/2000/svg">
<path d="M102.959 95.1228V56.4734C102.959 53.7844 102.415 51.1238 101.36 48.6543C100.305 46.1848 98.7605 43.9586 96.822 42.112L60.7094 7.69986C58.8906 5.96605 56.4826 5 53.9796 5C51.4766 5 49.0686 5.96605 47.2498 7.69986L11.1371 42.112C9.19865 43.9586 7.65446 46.1848 6.59917 48.6543C5.54389 51.1238 4.99972 53.7844 5 56.4734V95.1228C5 97.7424 6.03207 100.255 7.86916 102.107C9.70625 103.959 12.1979 105 14.7959 105H93.1633C95.7613 105 98.2529 103.959 100.09 102.107C101.927 100.255 102.959 97.7424 102.959 95.1228Z" stroke="#FFFF" stroke-width="10" stroke-linecap="round" stroke-linejoin="round"/>
</svg>
