<svg width="97" height="100" viewBox="0 0 97 100" fill="none" xmlns="http://www.w3.org/2000/svg">
<path d="M89.2857 0H32.1429C30.2485 0 28.4316 0.752549 27.0921 2.09209C25.7526 3.43164 25 5.24845 25 7.14286H89.2857V92.8571H32.1429V57.8571H25V92.8571C25 94.7515 25.7526 96.5684 27.0921 97.9079C28.4316 99.2474 30.2485 100 32.1429 100H89.2857C91.1801 100 92.9969 99.2474 94.3365 97.9079C95.676 96.5684 96.4286 94.7515 96.4286 92.8571V7.14286C96.4286 5.24845 95.676 3.43164 94.3365 2.09209C92.9969 0.752549 91.1801 0 89.2857 0V0Z" fill="white"/>
<path d="M43.2857 51.6421C42.9119 51.9623 42.6082 52.3563 42.3938 52.7994C42.1795 53.2425 42.059 53.7251 42.04 54.2169C42.021 54.7088 42.1039 55.1993 42.2834 55.6576C42.463 56.1159 42.7353 56.5321 43.0834 56.8802C43.4314 57.2282 43.8477 57.5006 44.306 57.6801C44.7643 57.8597 45.2548 57.9425 45.7466 57.9235C46.2385 57.9045 46.7211 57.7841 47.1642 57.5697C47.6073 57.3553 48.0013 57.0517 48.3214 56.6778L69 35.9993L48.3571 15.3207C47.6739 14.7356 46.7951 14.4299 45.8962 14.4646C44.9974 14.4993 44.1448 14.8719 43.5087 15.508C42.8727 16.144 42.5 16.9967 42.4653 17.8955C42.4306 18.7943 42.7363 19.6732 43.3214 20.3564L55.3571 32.1421H3.57143C2.62423 32.1421 1.71582 32.5184 1.04605 33.1882C0.376274 33.8579 0 34.7663 0 35.7135C0 36.6607 0.376274 37.5692 1.04605 38.2389C1.71582 38.9087 2.62423 39.285 3.57143 39.285H55.3571L43.2857 51.6421Z" fill="white"/>
</svg>
