<svg width="113" height="100" viewBox="0 0 113 100" fill="none" xmlns="http://www.w3.org/2000/svg">
    <path d="M15.5242 0C11.4069 0 7.45828 1.7043 4.54693 4.73798C1.63558 7.77165 0 11.8862 0 16.1765V66.1765C0 70.4667 1.63558 74.5813 4.54693 77.615C7.45828 80.6486 11.4069 82.3529 15.5242 82.3529H97.379C101.496 82.3529 105.445 80.6486 108.356 77.615C111.268 74.5813 112.903 70.4667 112.903 66.1765V16.1765C112.903 11.8862 111.268 7.77165 108.356 4.73798C105.445 1.7043 101.496 0 97.379 0H15.5242ZM8.46774 16.1765C8.46774 12.1176 11.629 8.82353 15.5242 8.82353H97.379C101.274 8.82353 104.435 12.1176 104.435 16.1765V66.1765C104.435 70.2353 101.274 73.5294 97.379 73.5294H15.5242C11.629 73.5294 8.46774 70.2353 8.46774 66.1765V16.1765ZM21.1694 91.1765C20.0465 91.1765 18.9696 91.6413 18.1756 92.4686C17.3816 93.296 16.9355 94.4182 16.9355 95.5882C16.9355 96.7583 17.3816 97.8805 18.1756 98.7078C18.9696 99.5352 20.0465 100 21.1694 100H91.7339C92.8568 100 93.9337 99.5352 94.7277 98.7078C95.5217 97.8805 95.9677 96.7583 95.9677 95.5882C95.9677 94.4182 95.5217 93.296 94.7277 92.4686C93.9337 91.6413 92.8568 91.1765 91.7339 91.1765H21.1694Z" fill="white"/>
    </svg>
    