<svg width="90" height="100" viewBox="0 0 90 100" fill="none" xmlns="http://www.w3.org/2000/svg">
    <path d="M85.7829 81.608C83.5432 75.9946 80.2929 70.8958 76.2132 66.5955C72.1459 62.2828 67.3278 58.8443 62.025 56.4699C61.9775 56.4447 61.93 56.4322 61.8825 56.407C69.2794 50.7538 74.0879 41.5452 74.0879 31.1558C74.0879 13.9447 60.9089 0 44.6429 0C28.3768 0 15.1978 13.9447 15.1978 31.1558C15.1978 41.5452 20.0063 50.7538 27.4032 56.4196C27.3557 56.4447 27.3082 56.4573 27.2608 56.4824C21.9416 58.8568 17.1687 62.2613 13.0725 66.608C8.9966 70.9117 5.74689 76.0097 3.50284 81.6206C1.29828 87.1137 0.109314 93.0031 0.000296897 98.9698C-0.00287207 99.1039 0.0193545 99.2373 0.0656677 99.3622C0.111981 99.487 0.181443 99.6008 0.269962 99.6968C0.35848 99.7928 0.464264 99.8691 0.58108 99.9212C0.697895 99.9732 0.82338 100 0.950139 100H8.07395C8.59636 100 9.01192 99.5603 9.02379 99.0201C9.26125 89.3216 12.9419 80.2387 19.4483 73.3543C26.1803 66.2312 35.1207 62.3116 44.6429 62.3116C54.165 62.3116 63.1054 66.2312 69.8374 73.3543C76.3438 80.2387 80.0245 89.3216 80.2619 99.0201C80.2738 99.5729 80.6893 100 81.2118 100H88.3356C88.4623 100 88.5878 99.9732 88.7046 99.9212C88.8214 99.8691 88.9272 99.7928 89.0158 99.6968C89.1043 99.6008 89.1737 99.487 89.22 99.3622C89.2664 99.2373 89.2886 99.1039 89.2854 98.9698C89.1667 92.9648 87.9913 87.1231 85.7829 81.608V81.608ZM44.6429 52.7638C39.1931 52.7638 34.064 50.5151 30.2053 46.4322C26.3465 42.3492 24.2213 36.9221 24.2213 31.1558C24.2213 25.3894 26.3465 19.9623 30.2053 15.8794C34.064 11.7965 39.1931 9.54774 44.6429 9.54774C50.0926 9.54774 55.2217 11.7965 59.0804 15.8794C62.9392 19.9623 65.0645 25.3894 65.0645 31.1558C65.0645 36.9221 62.9392 42.3492 59.0804 46.4322C55.2217 50.5151 50.0926 52.7638 44.6429 52.7638Z" fill="white"/>
    </svg>
    